<svg xmlns="http://www.w3.org/2000/svg" width="47.247" height="47.057" viewBox="0 0 47.247 47.057">
    <defs>
        <style>.a{fill:#fff;fill-rule:evenodd;}</style>
    </defs>
    <g transform="translate(-1819.938 -14)">
        <g transform="translate(1819.938 14)">
            <path class="a"
                  d="M30.34,21.617A4.271,4.271,0,0,0,26.9,15.89,77.946,77.946,0,0,0,18.7,15.7h-.1V32.88h2.291c1.909,0,3.818,0,5.632-.1A4.666,4.666,0,0,0,28.431,24.1a.333.333,0,0,1-.1-.191A3.422,3.422,0,0,0,30.34,21.617Zm-9.068-3.532h4.2a2.434,2.434,0,0,1,.1,4.868c-1.241.1-2.386,0-3.627,0h-.573C21.273,21.235,21.273,19.708,21.273,18.086ZM26.141,30.4c-1.623.1-3.15,0-4.868,0V25.34c.1,0,.191-.1.382-.1h3.913a2.458,2.458,0,0,1,2.673,2.673A2.413,2.413,0,0,1,26.141,30.4Z"
                  transform="translate(-0.751 -0.714)"/>
            <path class="a" d="M0,0V8.4H2.1V2.1H45.052V8.4h2.1V0Z" transform="translate(0.095)"/>
            <path class="a" d="M44.952,46.8H2V40.5H-.1v8.4H46.957V40.5h-2.1C44.952,42.6,44.952,44.7,44.952,46.8Z"
                  transform="translate(0.1 -1.843)"/>
            <path class="a" d="M6.9,15.7V32.881H9.286V15.7Z" transform="translate(-0.219 -0.714)"/>
            <path class="a" d="M40,15.7V32.881h2.386V15.7Z" transform="translate(-1.725 -0.714)"/>
        </g>
    </g>
</svg>